inDegrees=no
num_controls=7
num_derivatives=13
num_iterations=84
num_multipliers=7
num_parameters=0
num_slacks=7
num_states=26
objective=0.425736
objective_accelerations=0.058184
objective_balance=0.001351
objective_effort=0.014550
objective_height=0.345747
objective_ligament=0.005904
solver_duration=1231.643424
status=Solve_Succeeded
success=true
DataType=double
version=3
OpenSimVersion=4.5
endheader
time	/jointset/ground_pelvis/pelvis_tilt/value	/jointset/ground_pelvis/pelvis_tx/value	/jointset/ground_pelvis/pelvis_ty/value	/jointset/hip_l/hip_flexion_l/value	/jointset/hip_l/hip_adduction_l/value	/jointset/hip_l/hip_rotation_l/value	/jointset/back/lumbar_extension/value	/jointset/patellofemoral_l/patellar_flexion_l/value	/jointset/knee_l/knee_flexion_l/value	/jointset/knee_l/knee_adduction_l/value	/jointset/knee_l/knee_rotation_l/value	/jointset/ankle_l/ankle_angle_l/value	/jointset/subtalar_l/subtalar_angle_l/value	/jointset/ground_pelvis/pelvis_tilt/speed	/jointset/ground_pelvis/pelvis_tx/speed	/jointset/ground_pelvis/pelvis_ty/speed	/jointset/hip_l/hip_flexion_l/speed	/jointset/hip_l/hip_adduction_l/speed	/jointset/hip_l/hip_rotation_l/speed	/jointset/back/lumbar_extension/speed	/jointset/patellofemoral_l/patellar_flexion_l/speed	/jointset/knee_l/knee_flexion_l/speed	/jointset/knee_l/knee_adduction_l/speed	/jointset/knee_l/knee_rotation_l/speed	/jointset/ankle_l/ankle_angle_l/speed	/jointset/subtalar_l/subtalar_angle_l/speed	/forceset/tau_hip_flexion_l	/forceset/tau_hip_adduction_l	/forceset/tau_hip_rotation_l	/forceset/tau_knee_flexion_l	/forceset/tau_ankle_angle_l	/forceset/tau_subtalar_angle_l	/forceset/tau_lumbar_extension	lambda_cid13_p0	lambda_cid13_p1	lambda_cid13_p2	lambda_cid13_p3	lambda_cid13_p4	lambda_cid13_p5	lambda_cid14_p0	/jointset/ground_pelvis/pelvis_tilt/accel	/jointset/ground_pelvis/pelvis_tx/accel	/jointset/ground_pelvis/pelvis_ty/accel	/jointset/hip_l/hip_flexion_l/accel	/jointset/hip_l/hip_adduction_l/accel	/jointset/hip_l/hip_rotation_l/accel	/jointset/back/lumbar_extension/accel	/jointset/patellofemoral_l/patellar_flexion_l/accel	/jointset/knee_l/knee_flexion_l/accel	/jointset/knee_l/knee_adduction_l/accel	/jointset/knee_l/knee_rotation_l/accel	/jointset/ankle_l/ankle_angle_l/accel	/jointset/subtalar_l/subtalar_angle_l/accel	gamma_cid13_p0	gamma_cid13_p1	gamma_cid13_p2	gamma_cid13_p3	gamma_cid13_p4	gamma_cid13_p5	gamma_cid14_p0
1	-0.4373800360632171	-0.003411666566171006	0.5931355321265483	1.693112783909032	-0.345794709035177	0.1296448344202549	-0.4362552889246949	1.515230660850306	1.515230660850349	0.07024542358035507	-0.1744041650336073	0.4351838910045135	0.2508185075614637	-0.1470012224884442	-0.002236106100378009	0.02276933291265647	0.06073802772110543	0.002368866543884442	-0.05066416516699528	-0.0002109715873117431	-0.1241827043329614	-0.1241827043329514	0.00367015548644106	0.0001040420425570829	-0.04853160572626851	-0.02558331667846881	-0.2350879739314623	0.04190921036994824	-0.01456053533847753	-0.2942123040485115	-0.03557773839282492	0.01173135972088406	0.2062824093421166	-43.67756592855628	8.278627064193898	-8.141240486411139	8.006417624169849	-542.0774708165094	-66.29856681593407	-0.02380295217570306	1.467695043592599	0.1541109833795356	1.998250751119809	-6.515172330890461	-0.1909840414433085	-1.525164227028768	-0.03836910801747969	-5.596458479758144	-5.596458479758534	-0.8746206258354843	-0.03258299317930439	-1.03688115917553	-0.9329117442292489	6.742396493535851e-10	-1.187060852873975e-07	-5.395898158652494e-08	-9.853205806575904e-09	-3.767445340175891e-09	-1.64195039213465e-07	6.451517730443739e-09
1.01	-0.4387773527468557	-0.003426301359655098	0.5934629212473348	1.693395456415136	-0.3457799875030309	0.1290641958542093	-0.4362584629503343	1.513709487440867	1.513709487440831	0.07023707115683098	-0.1744032078120662	0.4346468030324819	0.250517041362734	-0.1324550468303432	-0.0006834372397446318	0.04269897834827034	-0.004191663420019557	0.0005784409654255943	-0.06545581059470519	-0.0004253537348417372	-0.1800405650114905	-0.1800405650115131	-0.005335750223907402	8.529359330891098e-05	-0.05889007621542112	-0.03470114184581685	-0.2354297159774993	0.04193643610251477	-0.014600023017942	-0.2933629393568153	-0.03569681958503813	0.01175205957322275	0.2064398227472218	-43.67963068473401	8.241588147549043	-8.102883998810999	7.861060443753798	-541.8492676292135	-66.15649885085664	-0.02381637678922731	1.449139736785196	0.1569533821217471	1.988892949151851	-6.48008723902948	-0.1726084691449503	-1.455009125405682	-0.01320079709935762	-5.578739630742833	-5.578739630747547	-0.9128524901426827	0.01313590618061268	-1.035950293838066	-0.8998651318519003	8.619998783660236e-10	-1.623705974523491e-07	-8.219846946807296e-08	-1.870507134579154e-08	-7.740777419392781e-09	-2.172855132698135e-07	8.233736085651779e-09
1.02	-0.4400289954919402	-0.003425187755589648	0.593989321124352	1.69302918806317	-0.3457830775572885	0.1283358719489325	-0.4362638264032357	1.511630077470874	1.511630077470758	0.07013880428691105	-0.1744025067396226	0.4340060062955497	0.2501246674665581	-0.1178664347775896	0.0009135734095303017	0.06257148415866851	-0.06905014389338156	-0.001193450736945473	-0.08020123301295973	-0.0006488570415132552	-0.2358300164437193	-0.2358300164437746	-0.01431273379458082	5.281222318793974e-05	-0.06927335870668849	-0.04376485616773711	-0.2357714580235235	0.04196366183507951	-0.01463951069737194	-0.2925135746651181	-0.03581590077725307	0.0117727594255572	0.2065972361523405	-43.68595550688521	8.203389792454441	-8.062166008939668	7.718505715908613	-541.7321894404622	-66.01662485521263	-0.02383253477970992	1.476182322523068	0.1629793411078854	1.98682282607667	-6.500930197337876	-0.1872772662257753	-1.515919625137677	-0.04019333984567809	-5.582776630498097	-5.582776630498503	-0.8688361979005188	-0.03532957735388149	-1.041843559598417	-0.9220895751436877	9.234985017251268e-10	-2.049951443900625e-07	-1.096755916553087e-07	-2.695934517858206e-08	-1.182434781023746e-08	-2.682200664808411e-07	9.917598716877723e-09
1.03	-0.4411344365920988	-0.003407830404210708	0.5947140919275001	1.692014723156166	-0.3458037763922446	0.1274603425584559	-0.4362715047143446	1.508993216964814	1.508993216964764	0.06995097515517519	-0.1744021963678409	0.433261239459763	0.2496419733229115	-0.103204142749532	0.002570544435181618	0.0823663863598207	-0.1338283662065028	-0.002941720809544248	-0.09489313008095439	-0.0008921218435571682	-0.2915204449402899	-0.2915204449403277	-0.02324443776985167	7.275136629687423e-06	-0.07968516132726415	-0.05276058430206301	-0.2358932430687036	0.04198505106794038	-0.0146432560226809	-0.2915057846304513	-0.03577811897394968	0.0118224239826805	0.2066243645713917	-43.61615387391861	8.132926634922212	-8.009044059289408	7.496635248965557	-541.3341949075441	-65.88434107456058	-0.02385380115222654	1.463899366437916	0.1689460272502143	1.973377193906754	-6.464097222079207	-0.1678896364979222	-1.444105403889699	-0.01719054959972565	-5.558932315351519	-5.558932315348695	-0.9040560011116706	0.0104929007354395	-1.041632587834715	-0.8862503433129918	9.837087413530728e-10	-2.47609079437702e-07	-1.371449346007658e-07	-3.520752113681722e-08	-1.590904308181304e-08	-3.191326204995696e-07	1.160045771826712e-08
